<?xml version="1.0" encoding="UTF-8"?>
<!-- Created with Inkscape (http://www.inkscape.org/) -->
<svg width="20" height="20" version="1.1" viewBox="0 0 20 20" xml:space="preserve" xmlns="http://www.w3.org/2000/svg" xmlns:cc="http://creativecommons.org/ns#" xmlns:dc="http://purl.org/dc/elements/1.1/" xmlns:rdf="http://www.w3.org/1999/02/22-rdf-syntax-ns#"><metadata><rdf:RDF><cc:Work rdf:about=""><dc:format>image/svg+xml</dc:format><dc:type rdf:resource="http://purl.org/dc/dcmitype/StillImage"/><dc:title/></cc:Work></rdf:RDF></metadata><defs><clipPath id="clipPath3774"><path d="m5 15h5c2.7614 0 5-2.2386 5-5v-5c0-2.7614-2.2386-5-5-5h-5c-2.7614 0-5 2.2386-5 5v5c0 2.7614 2.2386 5 5 5z" clip-rule="evenodd"/></clipPath><clipPath id="clipPath3780"><path d="m-30-242h375v667h-375z"/></clipPath><clipPath id="clipPath3786"><path d="m-10-10h35v35h-35z"/></clipPath><clipPath id="clipPath3790"><path d="m0 0h15v15h-15z"/></clipPath><clipPath id="clipPath3812"><path d="m-30-242h375v667h-375z"/></clipPath></defs><g transform="matrix(1.3333 0 0 -1.3333 0 20)"><g clip-path="url(#clipPath3774)"><g clip-path="url(#clipPath3780)"><g clip-path="url(#clipPath3786)"><g clip-path="url(#clipPath3790)"><g transform="matrix(1,0,0,-1,0,15)"><path d="m5 0h5c2.7614 0 5 2.2386 5 5v5c0 2.7614-2.2386 5-5 5h-5c-2.7614 0-5-2.2386-5-5v-5c0-2.7614 2.2386-5 5-5z" fill="none" stroke="#65a5ff" stroke-miterlimit="10" stroke-width="2"/></g></g></g></g></g><g clip-path="url(#clipPath3812)"><g transform="matrix(1,0,0,-1,5,10)"><path d="m2.5 0c1.3807 0 2.5 1.1193 2.5 2.5s-1.1193 2.5-2.5 2.5-2.5-1.1193-2.5-2.5 1.1193-2.5 2.5-2.5z" fill="none" stroke="#65a5ff" stroke-miterlimit="10"/></g></g></g></svg>
