<?xml version="1.0" encoding="UTF-8" standalone="no"?>
<!DOCTYPE svg PUBLIC "-//W3C//DTD SVG 1.1//EN"
"http://www.w3.org/Graphics/SVG/1.1/DTD/svg11.dtd">


<!-- Page 1 -->
<svg x="0" y="0" width="24" height="24" viewBox="0 0 24 24" version="1.1" xmlns="http://www.w3.org/2000/svg" xmlns:xlink="http://www.w3.org/1999/xlink"
style="display: block;margin-left: auto;margin-right: auto;">
<defs>
<clipPath id="c0_1"><path d="M7.6,11C6.9,11,6.4,10.5,6.4,9.9c0,-.7,.5,-1.2,1.2,-1.2c.6,0,1.1,.5,1.1,1.2c0,.6,-.5,1.1,-1.1,1.1Zm4.5,0C11.5,11,11,10.5,11,9.9c0,-.7,.5,-1.2,1.1,-1.2c.7,0,1.2,.5,1.2,1.2c0,.6,-.5,1.1,-1.2,1.1Zm4.6,0c-.6,0,-1.1,-.5,-1.1,-1.1c0,-.7,.5,-1.2,1.1,-1.2c.7,0,1.2,.5,1.2,1.2c0,.6,-.5,1.1,-1.2,1.1Z" /></clipPath>

<style type="text/css"><![CDATA[

.g0_1{
fill: none;
stroke: #666666;
stroke-width: 1.5277778;
stroke-linecap: butt;
stroke-linejoin: miter;
}
.g1_1{
fill: #666666;
}

]]></style>

</defs>
<path d="M0,0
L0,24
L24,24
L24,0 Z " 
fill="#FFFFFF" stroke="none" />
<path d="M16.1,17.5c-1.4,1.4,-3.6,5.3,-3.6,5.3c-.2,.2,-.4,.2,-.5,0c0,0,-3,-4.5,-3.7,-5.3H4.1C2.5,17.5,1.3,16.1,1.3,14.6V4.3C1.3,2.8,2.5,1.5,4,1.5H20.4c1.5,0,2.7,1.3,2.7,2.8V14.6c0,1.5,-1.2,2.9,-2.7,2.9H16.1Z" class="g0_1" />
<g clip-path="url(#c0_1)">
<path d="M-1.1,1.1H25.5V18.6H-1.1Z" class="g1_1" />
</g>

</svg>
