<?xml version="1.0" encoding="UTF-8" standalone="no"?>
<!DOCTYPE svg PUBLIC "-//W3C//DTD SVG 1.1//EN"
"http://www.w3.org/Graphics/SVG/1.1/DTD/svg11.dtd">


<!-- Page 1 -->
<svg x="0" y="0" width="12" height="13" viewBox="0 0 12 13" version="1.1" xmlns="http://www.w3.org/2000/svg" xmlns:xlink="http://www.w3.org/1999/xlink"
style="display: block;margin-left: auto;margin-right: auto;">
<defs>
<clipPath id="c0_1"><path d="M6.1,6.9C7.4,6.9,8.7,5.8,8.7,4.1C8.7,2.4,7.4,1.5,6.1,1.5c-1.3,0,-2.6,1,-2.6,2.6c0,1.6,1.3,2.8,2.6,2.8Zm-.8,6.7V11.8H1.9V10.2H5.3V8.3C3.6,8,2,6.7,2,4.2C2,1.7,4,0,6.1,0c2.1,0,4.1,1.8,4.1,4.1C10.2,6.5,8.6,8,6.9,8.3v1.9h3.4v1.6H6.9v1.8Z" /></clipPath>

<style type="text/css"><![CDATA[

.g0_1{
fill: #FF8A8F;
}

]]></style>

</defs>
<path d="M0,0
L0,13
L12,13
L12,0 Z " 
fill="#FFFFFF" stroke="none" />
<g clip-path="url(#c0_1)">
<path d="M-5.6,-7.5H17.9V21.3H-5.6Z" class="g0_1" />
</g>

</svg>
