<?xml version="1.0" encoding="UTF-8"?>
<!-- Created with Inkscape (http://www.inkscape.org/) -->
<svg width="58.667" height="24" version="1.1" viewBox="0 0 58.666668 24" xml:space="preserve" xmlns="http://www.w3.org/2000/svg" xmlns:cc="http://creativecommons.org/ns#" xmlns:dc="http://purl.org/dc/elements/1.1/" xmlns:rdf="http://www.w3.org/1999/02/22-rdf-syntax-ns#"><metadata><rdf:RDF><cc:Work rdf:about=""><dc:format>image/svg+xml</dc:format><dc:type rdf:resource="http://purl.org/dc/dcmitype/StillImage"/><dc:title/></cc:Work></rdf:RDF></metadata><defs><clipPath id="clipPath124"><path d="m9 18h26c4.9706 0 9-4.0294 9-9 0-4.9706-4.0294-9-9-9h-26c-4.9706 0-9 4.0294-9 9 0 4.9706 4.0294 9 9 9z" clip-rule="evenodd"/></clipPath><clipPath id="clipPath130"><path d="m-311-741h375v1223h-375z"/></clipPath><clipPath id="clipPath136"><path d="m-1.0737e9 -1.0737e9h2.1475e9v2.1475e9h-2.1475e9z"/></clipPath><linearGradient id="linearGradient146" x2="0" y2="1024" gradientTransform="matrix(1,0,0,-1,0,18)" gradientUnits="userSpaceOnUse"><stop stop-color="#ffa487" offset="0"/><stop stop-color="#ff7569" offset="1"/></linearGradient><linearGradient id="linearGradient152" x2="44" y2="18" gradientTransform="matrix(1,0,0,-1,0,18)" gradientUnits="userSpaceOnUse"><stop stop-color="#ffa487" offset="0"/><stop stop-color="#ff7569" offset="1"/></linearGradient><clipPath id="clipPath178"><path d="m-311-741h375v1223h-375z"/></clipPath></defs><g transform="matrix(1.3333 0 0 -1.3333 0 24)"><g clip-path="url(#clipPath124)"><g clip-path="url(#clipPath130)"><g clip-path="url(#clipPath136)"><path d="m0 0h44v18h-44z" fill="url(#linearGradient146)"/><path d="m0 0h44v18h-44z" fill="url(#linearGradient152)"/></g></g></g><g clip-path="url(#clipPath178)"><g transform="matrix(1,0,0,-1,10,17)"><text transform="translate(.669 12)" fill="#ffffff" font-family="'PingFang HK'" font-size="11px" font-weight="500"><tspan x="0 8.052 16.555" y="0">HOT</tspan></text>
</g></g></g></svg>
