<?xml version="1.0" encoding="UTF-8"?>
<!-- Created with Inkscape (http://www.inkscape.org/) -->
<svg width="20" height="20" version="1.1" viewBox="0 0 20 20" xml:space="preserve" xmlns="http://www.w3.org/2000/svg" xmlns:cc="http://creativecommons.org/ns#" xmlns:dc="http://purl.org/dc/elements/1.1/" xmlns:rdf="http://www.w3.org/1999/02/22-rdf-syntax-ns#"><metadata><rdf:RDF><cc:Work rdf:about=""><dc:format>image/svg+xml</dc:format><dc:type rdf:resource="http://purl.org/dc/dcmitype/StillImage"/><dc:title/></cc:Work></rdf:RDF></metadata><defs><clipPath id="clipPath47"><path d="m7.4188 0c-5.3852 0.0032575-7.4188 3.3579-7.4188 7.5 0 4.1421 3.3215 7.5 7.4188 7.5 4.0973 0 7.4188-3.3579 7.4188-7.5 0-0.80961-0.29684-3.5297-1.2205-5.043 0.47076-0.81094 0.93171-1.6211 1.3828-2.4306-4.7984-0.017743-7.3254-0.026537-7.5812-0.026382zm-2.6538 9.9108-0.156-0.984h1.2l-0.456-2.856h-1.044l-0.156-0.984h1.044l-0.3-1.872h1.116l0.3 1.872h1.524l-0.3-1.872h1.116l0.3 1.872h1.188l0.156 0.984h-1.188l0.444 2.856h1.044l0.156 0.984h-1.044l0.3 1.872h-1.104l-0.3-1.872h-1.536l0.3 1.872h-1.104l-0.3-1.872zm1.704-3.84 0.444 2.856h1.536l-0.456-2.856z"/></clipPath><clipPath id="clipPath53"><path d="m-20-545h375v1223h-375z"/></clipPath></defs><g transform="matrix(1.3333 0 0 -1.3333 0 20)"><g clip-path="url(#clipPath47)"><g clip-path="url(#clipPath53)"><path d="m-5 20h25v-25h-25z" fill="#65a5ff"/></g></g></g></svg>
