<?xml version="1.0" encoding="UTF-8" standalone="no"?>
<!DOCTYPE svg PUBLIC "-//W3C//DTD SVG 1.1//EN"
"http://www.w3.org/Graphics/SVG/1.1/DTD/svg11.dtd">


<!-- Page 1 -->
<svg x="0" y="0" width="24" height="24" viewBox="0 0 24 24" version="1.1" xmlns="http://www.w3.org/2000/svg" xmlns:xlink="http://www.w3.org/1999/xlink"
style="display: block;margin-left: auto;margin-right: auto;">
<defs>

<style type="text/css"><![CDATA[

.g0_1{
fill: none;
stroke: #666666;
stroke-width: 1.5277778;
stroke-linecap: butt;
stroke-linejoin: miter;
}

]]></style>

</defs>
<path d="M0,0
L0,24
L24,24
L24,0 Z " 
fill="#FFFFFF" stroke="none" />
<path d="M16.7,1.5c-1.7,0,-3.2,.8,-4.5,2.2C11,2.3,9.4,1.5,7.8,1.5c-3.2,0,-6,2.8,-6.2,6.3c-.3,2.9,1,5.9,3.9,8.8c2,2.1,4.6,3.8,6.3,4.7c.1,.1,.3,.1,.4,.1c.2,0,.3,0,.5,-.1c1.7,-.9,4.2,-2.6,6.3,-4.7c2.8,-2.9,4.1,-5.9,3.9,-8.8C22.6,4.3,19.8,1.5,16.7,1.5" class="g0_1" />

</svg>
