<?xml version="1.0" encoding="UTF-8" standalone="no"?>
<!DOCTYPE svg PUBLIC "-//W3C//DTD SVG 1.1//EN"
"http://www.w3.org/Graphics/SVG/1.1/DTD/svg11.dtd">


<!-- Page 1 -->
<svg x="0" y="0" width="41" height="39" viewBox="0 0 41 39" version="1.1" xmlns="http://www.w3.org/2000/svg" xmlns:xlink="http://www.w3.org/1999/xlink"
style="display: block;margin-left: auto;margin-right: auto;">
<defs>
<clipPath id="c0_1"><path d="M20.6,37.8c-.3,0,-.5,-.1,-.8,-.2C16.7,36.1,11.9,33.1,8.1,29.4C2.8,24.3,.4,19.1,.8,14C1.4,7.9,6.5,3.1,12.4,3.1c3.1,0,5.9,1.3,8.2,3.8C22.9,4.4,25.8,3.1,28.9,3.1c5.8,0,11,4.8,11.5,10.9c.5,5.1,-1.9,10.3,-7.2,15.4c-3.9,3.7,-8.6,6.7,-11.8,8.2c-.2,.1,-.5,.2,-.8,.2Z" /></clipPath>

<style type="text/css"><![CDATA[

.g0_1{
fill: none;
stroke: #808080;
stroke-width: 3.0555556;
stroke-linecap: butt;
stroke-linejoin: miter;
}

]]></style>

</defs>
<path d="M0,0
L0,39
L41,39
L41,0 Z " 
fill="#FFFFFF" stroke="none" />
<g clip-path="url(#c0_1)">
<path d="M28.9,3.1c-3.1,0,-6,1.3,-8.3,3.8C18.3,4.4,15.5,3.1,12.4,3.1C6.5,3.1,1.4,7.9,.8,14c-.4,5.1,2,10.3,7.3,15.4c3.8,3.7,8.6,6.7,11.7,8.2c.3,.1,.5,.2,.8,.2c.3,0,.6,-.1,.8,-.2c3.2,-1.5,7.9,-4.5,11.8,-8.2C38.5,24.3,40.9,19.1,40.4,14C39.9,7.9,34.7,3.1,28.9,3.1" class="g0_1" />
</g>

</svg>
