<?xml version="1.0" encoding="UTF-8" standalone="no"?>
<!DOCTYPE svg PUBLIC "-//W3C//DTD SVG 1.1//EN"
"http://www.w3.org/Graphics/SVG/1.1/DTD/svg11.dtd">


<!-- Page 1 -->
<svg x="0" y="0" width="12" height="13" viewBox="0 0 12 13" version="1.1" xmlns="http://www.w3.org/2000/svg" xmlns:xlink="http://www.w3.org/1999/xlink"
style="display: block;margin-left: auto;margin-right: auto;">
<defs>
<clipPath id="c0_1"><path d="M4.4,11.2C5.8,11.2,7,10.1,7,8.6C7,7.2,5.8,6,4.4,6C2.9,6,1.7,7.2,1.7,8.6c0,1.5,1.2,2.6,2.7,2.6Zm0,1.8C2,13,0,11,0,8.6C0,6.2,2,4.3,4.4,4.3c.9,0,1.7,.2,2.4,.7L9.2,2.5H7V.8h5.2V6H10.5V3.7L8,6.2c.5,.7,.7,1.5,.7,2.4C8.7,11,6.8,13,4.4,13Z" /></clipPath>

<style type="text/css"><![CDATA[

.g0_1{
fill: #65A5FF;
}

]]></style>

</defs>
<path d="M0,0
L0,13
L12,13
L12,0 Z " 
fill="#FFFFFF" stroke="none" />
<g clip-path="url(#c0_1)">
<path d="M-7.5,-6.8H19.9V20.6H-7.5Z" class="g0_1" />
</g>

</svg>
