<?xml version="1.0" encoding="UTF-8"?>
<!-- Created with Inkscape (http://www.inkscape.org/) -->
<svg width="25.333" height="20" version="1.1" viewBox="0 0 25.333332 20" xml:space="preserve" xmlns="http://www.w3.org/2000/svg" xmlns:cc="http://creativecommons.org/ns#" xmlns:dc="http://purl.org/dc/elements/1.1/" xmlns:rdf="http://www.w3.org/1999/02/22-rdf-syntax-ns#"><metadata><rdf:RDF><cc:Work rdf:about=""><dc:format>image/svg+xml</dc:format><dc:type rdf:resource="http://purl.org/dc/dcmitype/StillImage"/><dc:title/></cc:Work></rdf:RDF></metadata><defs><clipPath id="clipPath47"><path d="m4 15h7c2.2091 0 4-1.7909 4-4v-7c0-2.2091-1.7909-4-4-4h-7c-2.2091 0-4 1.7909-4 4v7c0 2.2091 1.7909 4 4 4zm3.5-5c-1.3807 0-2.5-1.1193-2.5-2.5s1.1193-2.5 2.5-2.5 2.5 1.1193 2.5 2.5-1.1193 2.5-2.5 2.5z" clip-rule="evenodd"/></clipPath><clipPath id="clipPath53"><path d="m-20-129h375v667h-375z"/></clipPath><clipPath id="clipPath59"><path d="m-10-10h35v35h-35z"/></clipPath><clipPath id="clipPath63"><path d="m4 15h7c2.2091 0 4-1.7909 4-4v-7c0-2.2091-1.7909-4-4-4h-7c-2.2091 0-4 1.7909-4 4v7c0 2.2091 1.7909 4 4 4zm3.5-5c-1.3807 0-2.5-1.1193-2.5-2.5s1.1193-2.5 2.5-2.5 2.5 1.1193 2.5 2.5-1.1193 2.5-2.5 2.5z" clip-rule="evenodd"/></clipPath><clipPath id="clipPath67"><path d="m0 0h15v15h-15z"/></clipPath><clipPath id="clipPath71"><path d="m0 0h15v15h-15z"/></clipPath><clipPath id="clipPath101"><path d="m14.571 14.5h0.42928c2.2091 0 4-1.7909 4-4v-6c0-2.2091-1.7909-4-4-4h-0.42928c0.88412 0.90188 1.4293 2.1373 1.4293 3.5v7c0 1.3627-0.54516 2.5981-1.4293 3.5z" clip-rule="evenodd"/></clipPath><clipPath id="clipPath107"><path d="m-20-129h375v667h-375z"/></clipPath></defs><g transform="matrix(1.3333 0 0 -1.3333 0 20)"><g clip-path="url(#clipPath47)"><g clip-path="url(#clipPath53)"><g clip-path="url(#clipPath59)"><g clip-path="url(#clipPath63)"><g clip-path="url(#clipPath67)"><path d="m4 15h7c2.2091 0 4-1.7909 4-4v-7c0-2.2091-1.7909-4-4-4h-7c-2.2091 0-4 1.7909-4 4v7c0 2.2091 1.7909 4 4 4zm3.5-5c-1.3807 0-2.5-1.1193-2.5-2.5s1.1193-2.5 2.5-2.5 2.5 1.1193 2.5 2.5-1.1193 2.5-2.5 2.5z" fill="#65a5ff"/></g></g><g clip-path="url(#clipPath71)"><g transform="matrix(1,0,0,-1,0,15)"><path d="m4 0h7c2.2091 0 4 1.7909 4 4v7c0 2.2091-1.7909 4-4 4h-7c-2.2091 0-4-1.7909-4-4v-7c0-2.2091 1.7909-4 4-4zm3.5 5c-1.3807 0-2.5 1.1193-2.5 2.5s1.1193 2.5 2.5 2.5 2.5-1.1193 2.5-2.5-1.1193-2.5-2.5-2.5z" fill="none" stroke="#65a5ff" stroke-miterlimit="10" stroke-width="2"/></g></g></g></g></g><g clip-path="url(#clipPath101)"><g clip-path="url(#clipPath107)"><path d="m9.5707 19.5h14.429v-24h-14.429z" fill="#65a5ff" fill-opacity=".7994"/></g></g></g></svg>
